<?xml version="1.0" encoding="utf-8"?>
<!-- Generator: Adobe Illustrator 17.0.2, SVG Export Plug-In . SVG Version: 6.00 Build 0)  -->
<!DOCTYPE svg PUBLIC "-//W3C//DTD SVG 1.0//EN" "http://www.w3.org/TR/2001/REC-SVG-20010904/DTD/svg10.dtd">
<svg version="1.0" id="Layer_1" xmlns="http://www.w3.org/2000/svg" xmlns:xlink="http://www.w3.org/1999/xlink" x="0px" y="0px"
	 width="300px" height="300px" viewBox="0 0 300 300" enable-background="new 0 0 300 300" xml:space="preserve">
<path fill="#C1272D" d="M149.089,152.133l0.84-1.374l80.102-124.673C206.978,11.167,179.503,2.5,150,2.5
	C68.538,2.5,2.5,68.538,2.5,150S68.538,297.5,150,297.5c80.762,0,146.353-64.911,147.474-145.407L149.089,152.133z"/>
<g>
	<path fill="#444444" d="M209.434,104.521c0.062,0.098,0.093,0.208,0.093,0.332c-0.017,0.18-0.032,0.315-0.049,0.406l-2.707,10.359
		l0.615-1.227c1.274-2.498,2.765-4.778,4.473-6.841s3.332-3.095,4.871-3.095c0.832,0,1.474,0.275,1.925,0.824
		s0.677,1.178,0.677,1.886c0,0.797-0.226,1.457-0.676,1.979c-0.451,0.522-1.073,0.783-1.868,0.783c-0.548,0-0.964-0.106-1.246-0.318
		c-0.283-0.213-0.504-0.46-0.663-0.744l-0.318-0.584c-0.07-0.106-0.154-0.19-0.251-0.252c-0.098-0.062-0.217-0.093-0.358-0.093
		c-0.691,0-1.688,0.965-2.991,2.896c-1.304,1.93-2.469,4.02-3.497,6.269c-0.62,1.364-1.312,3.17-2.073,5.418
		c-0.482,1.417-1.125,3.427-1.928,6.029h-4.078l4.429-15.99c0.248-0.92,0.447-1.744,0.598-2.47s0.226-1.319,0.226-1.78
		c0-0.531-0.133-0.938-0.398-1.222s-0.727-0.425-1.381-0.425c-0.213,0-0.479,0.018-0.797,0.053c-0.319,0.036-0.7,0.08-1.143,0.133
		v-0.876l1.063-0.212c1.382-0.283,2.892-0.584,4.53-0.903s2.503-0.478,2.592-0.478C209.261,104.375,209.371,104.424,209.434,104.521
		z"/>
	<path fill="#444444" d="M239.113,105.545c0.412,0.39,0.734,0.904,0.968,1.542l0.134,0.372l0.596-2.002
		c0.072-0.228,0.136-0.382,0.189-0.46c0.054-0.079,0.181-0.127,0.379-0.146l3.061-0.342c0.163,0,0.258,0.031,0.284,0.093
		c0.026,0.062,0.022,0.173-0.013,0.332c-0.076,0.23-0.134,0.412-0.172,0.544s-0.095,0.323-0.171,0.57l-2.629,9.506
		c-0.571,2.071-1.057,3.858-1.457,5.363c-0.655,2.717-0.982,4.27-0.982,4.658c0,0.248,0.066,0.429,0.199,0.543
		c0.133,0.115,0.296,0.172,0.491,0.172c0.159,0,0.336-0.053,0.531-0.159c0.195-0.106,0.433-0.266,0.712-0.478l0.476-0.372
		c0.149-0.124,0.317-0.27,0.504-0.438c0.187-0.168,0.41-0.376,0.671-0.624l1.734-1.7l0.638,0.558
		c-1.893,2.355-3.411,3.954-4.558,4.794s-2.238,1.262-3.274,1.262c-0.673,0-1.191-0.23-1.555-0.689s-0.545-1.034-0.545-1.723
		c0-0.636,0.119-1.55,0.358-2.742s0.474-2.195,0.704-3.008c-0.318,0.532-0.854,1.307-1.604,2.326
		c-0.752,1.02-1.676,2.007-2.772,2.964c-1.29,1.152-2.528,1.967-3.713,2.446c-0.919,0.318-1.804,0.479-2.652,0.479
		c-1.432,0-2.731-0.59-3.898-1.768c-1.167-1.179-1.751-2.85-1.751-5.013c0-3.723,1.683-7.605,5.048-11.647
		c3.474-4.201,7.071-6.302,10.795-6.302C237.252,104.455,238.344,104.819,239.113,105.545z M238.252,106.555
		c-0.591-0.603-1.307-0.904-2.147-0.904c-2.917,0-5.628,2.216-8.133,6.649c-2.201,3.901-3.302,7.261-3.302,10.08
		c0,1.419,0.305,2.452,0.915,3.099c0.608,0.647,1.364,0.971,2.266,0.971c2.668,0,5.239-2.154,7.713-6.462
		c2.383-3.918,3.574-7.456,3.574-10.612C239.138,108.098,238.842,107.158,238.252,106.555z"/>
	<path fill="#444444" d="M265.872,105.464c0.338,0.389,0.605,1.053,0.802,1.991l3.121-10.888c0.088-0.301,0.146-0.571,0.172-0.811
		c0.027-0.239,0.04-0.447,0.04-0.624c0-0.69-0.128-1.124-0.385-1.301s-0.624-0.266-1.103-0.266c-0.301,0-0.58,0.009-0.837,0.026
		c-0.257,0.018-0.598,0.044-1.022,0.08v-0.876c2.011-0.266,4.796-0.726,8.354-1.381l0.24,0.266l-0.055,0.292l-5.241,19.091
		l-3.569,12.627c-0.071,0.286-0.129,0.549-0.173,0.791c-0.044,0.242-0.066,0.46-0.066,0.657c0,0.482,0.119,0.795,0.357,0.938
		c0.238,0.143,0.447,0.214,0.626,0.214c0.52,0,1.254-0.454,2.203-1.362c0.556-0.552,1.316-1.406,2.283-2.564l0.611,0.584
		l-0.375,0.56c-0.659,0.978-1.506,1.973-2.539,2.985c-1.837,1.795-3.485,2.692-4.946,2.692c-0.481,0-0.919-0.106-1.311-0.319
		c-0.729-0.425-1.094-1.186-1.094-2.284c0-0.372,0.053-0.965,0.159-1.779c0.106-0.814,0.269-1.707,0.486-2.678
		c-1.347,2.053-2.822,3.733-4.426,5.043c-1.604,1.309-3.354,1.964-5.25,1.964c-1.542,0-2.889-0.549-4.041-1.645
		s-1.728-2.786-1.728-5.068c0-3.856,1.781-7.818,5.344-11.887c3.545-4.051,7.001-6.076,10.367-6.076
		C264.286,104.455,265.284,104.792,265.872,105.464z M252.641,125.188c0.496,0.805,1.338,1.207,2.525,1.207
		c2.534,0,4.971-2.034,7.311-6.102c2.253-3.82,3.379-7.437,3.379-10.85c0-1.079-0.179-1.972-0.535-2.679
		c-0.356-0.707-1.078-1.061-2.166-1.061c-2.71,0-5.33,2.176-7.862,6.526c-2.265,3.891-3.396,7.269-3.396,10.133
		C251.896,123.442,252.144,124.384,252.641,125.188z"/>
</g>
</svg>
